# xmcd
#
# Track frame offsets:
# 150
# 17045
# 31565
# 46025
# 62295
# 74695
# 88445
# 107740
# 122620
# 135350
# 147960
# 165300
# 181415
# 197950
# 210790
# 225745
# 239355
# 253250
# 268105
# 281535
#
# Disc length: 4022 seconds
#
#
# Revision: 0
# Processed by: cddbd v1.5.1PL2 Copyright (c) Steve Scherf et al.
# Submitted via: FreeRIP 2.944 
#
DISCID=160fb414
DTITLE=GILBERTO and GILMAR - 20 PREFERIDAS
DYEAR=1900
DGENRE=Country
TTITLE0=MAIS QUE PAIXÃO
TTITLE1=VOLTAR DE QUE JEITO?
TTITLE2=FOI O AMOR
TTITLE3=FIEL COMO CÃO
TTITLE4=NÃO DEVO MAIS FICAR
TTITLE5=PARTE DE MIM
TTITLE6=EU GOSTO SIM
TTITLE7=AMOR ANTIGO
TTITLE8=CABOCLA TEREZA
TTITLE9=MISTÉRIOS E SEGREDOS
TTITLE10=DEUS ME LIVRE
TTITLE11=DALE, DALE GOL
TTITLE12=PÁSSARO SEM NINHO
TTITLE13=NINHO DE COBRA
TTITLE14=COMO MEU ERA FELIZ
TTITLE15=VENTO DO NORTE
TTITLE16=SAUDADE
TTITLE17=LOBISOMEM
TTITLE18=DEIXE EU CHORAR
TTITLE19=DEUS ESTA CHORANDO POR NÓS
EXTD=
EXTT0=
EXTT1=
EXTT2=
EXTT3=
EXTT4=
EXTT5=
EXTT6=
EXTT7=
EXTT8=
EXTT9=
EXTT10=
EXTT11=
EXTT12=
EXTT13=
EXTT14=
EXTT15=
EXTT16=
EXTT17=
EXTT18=
EXTT19=
PLAYORDER=
